<svg width="52" height="52" viewBox="0 0 52 52" fill="none" xmlns="http://www.w3.org/2000/svg">
<g opacity="0.7" clip-path="url(#clip0_65_230)">
<path d="M45.691 10.5286L26.1471 0.114582C25.8572 -0.0401617 25.5097 -0.03799 25.2219 0.120012L6.21882 10.534C5.90716 10.705 5.71387 11.0319 5.71387 11.3875V24.9909C5.72527 36.1731 12.3505 46.2896 22.5961 50.7696L25.2338 51.919C25.4804 52.0265 25.7611 52.0271 26.0081 51.9201L28.9803 50.6365C39.416 46.2538 46.2052 36.0396 46.2062 24.721V11.3875C46.2062 11.0281 46.0081 10.6974 45.691 10.5286ZM44.2603 24.721C44.2581 35.2593 37.9353 44.7682 28.2185 48.8464L28.212 48.8497L25.6237 49.9671L23.3748 48.9859C13.8376 44.816 7.67015 35.4 7.6593 24.9909V11.9636L25.6959 2.07847L44.2603 11.9707V24.721Z" fill="white"/>
<path d="M18.5174 24.3601C18.1683 23.9513 17.5542 23.9029 17.1454 24.2521C16.7365 24.6006 16.6882 25.2153 17.0373 25.6236L22.177 31.6423C22.5201 32.0441 23.1212 32.0989 23.5306 31.7656L35.5007 22.027C35.9177 21.6882 35.9807 21.0752 35.6413 20.6582C35.3025 20.2418 34.6895 20.1782 34.2725 20.5176L23.0397 29.6556L18.5174 24.3601Z" fill="white"/>
</g>
<defs>
<clipPath id="clip0_65_230">
<rect width="52" height="52" fill="white"/>
</clipPath>
</defs>
</svg>
