<svg width="21" height="21" viewBox="0 0 21 21" fill="none" xmlns="http://www.w3.org/2000/svg">
<g opacity="0.6">
<mask id="path-1-inside-1_33_119" fill="white">
<path fill-rule="evenodd" clip-rule="evenodd" d="M0.969111 2.74594C0.5 3.64902 0.5 4.83546 0.5 7.20833V13.7917C0.5 16.1645 0.5 17.351 0.969111 18.2541C1.36443 19.0151 1.98493 19.6356 2.74594 20.0309C3.64902 20.5 4.83546 20.5 7.20833 20.5H13.7917C16.1645 20.5 17.351 20.5 18.2541 20.0309C19.0151 19.6356 19.6356 19.0151 20.0309 18.2541C20.5 17.351 20.5 16.1645 20.5 13.7917V7.20833C20.5 4.83546 20.5 3.64902 20.0309 2.74594C19.6356 1.98493 19.0151 1.36443 18.2541 0.969111C17.351 0.5 16.1645 0.5 13.7917 0.5H7.20833C4.83546 0.5 3.64902 0.5 2.74594 0.969111C1.98493 1.36443 1.36443 1.98493 0.969111 2.74594ZM4.98909 6.71108C5.9473 6.71108 6.72408 5.9343 6.72408 4.97608C6.72408 4.01787 5.9473 3.24109 4.98909 3.24109C4.03087 3.24109 3.25409 4.01787 3.25409 4.97608C3.25409 5.9343 4.03087 6.71108 4.98909 6.71108ZM8.31304 7.99329H11.1885V9.31055C11.1885 9.31055 11.9688 7.74997 14.0918 7.74997C15.9857 7.74997 17.5546 8.68293 17.5546 11.5267V17.5233H14.5748V12.2533C14.5748 10.5758 13.6792 10.3913 12.9967 10.3913C11.5804 10.3913 11.3379 11.6129 11.3379 12.4721V17.5233H8.31304V7.99329ZM6.50153 7.9933H3.47665V17.5233H6.50153V7.9933Z"/>
</mask>
<path fill-rule="evenodd" clip-rule="evenodd" d="M0.969111 2.74594C0.5 3.64902 0.5 4.83546 0.5 7.20833V13.7917C0.5 16.1645 0.5 17.351 0.969111 18.2541C1.36443 19.0151 1.98493 19.6356 2.74594 20.0309C3.64902 20.5 4.83546 20.5 7.20833 20.5H13.7917C16.1645 20.5 17.351 20.5 18.2541 20.0309C19.0151 19.6356 19.6356 19.0151 20.0309 18.2541C20.5 17.351 20.5 16.1645 20.5 13.7917V7.20833C20.5 4.83546 20.5 3.64902 20.0309 2.74594C19.6356 1.98493 19.0151 1.36443 18.2541 0.969111C17.351 0.5 16.1645 0.5 13.7917 0.5H7.20833C4.83546 0.5 3.64902 0.5 2.74594 0.969111C1.98493 1.36443 1.36443 1.98493 0.969111 2.74594ZM4.98909 6.71108C5.9473 6.71108 6.72408 5.9343 6.72408 4.97608C6.72408 4.01787 5.9473 3.24109 4.98909 3.24109C4.03087 3.24109 3.25409 4.01787 3.25409 4.97608C3.25409 5.9343 4.03087 6.71108 4.98909 6.71108ZM8.31304 7.99329H11.1885V9.31055C11.1885 9.31055 11.9688 7.74997 14.0918 7.74997C15.9857 7.74997 17.5546 8.68293 17.5546 11.5267V17.5233H14.5748V12.2533C14.5748 10.5758 13.6792 10.3913 12.9967 10.3913C11.5804 10.3913 11.3379 11.6129 11.3379 12.4721V17.5233H8.31304V7.99329ZM6.50153 7.9933H3.47665V17.5233H6.50153V7.9933Z" fill="url(#paint0_linear_33_119)"/>
<path d="M0.969111 2.74594L1.85652 3.20691L0.969111 2.74594ZM0.969111 18.2541L0.0816968 18.715H0.0816973L0.969111 18.2541ZM2.74594 20.0309L2.28497 20.9183H2.28497L2.74594 20.0309ZM18.2541 20.0309L18.715 20.9183H18.715L18.2541 20.0309ZM20.0309 18.2541L20.9183 18.715V18.715L20.0309 18.2541ZM20.0309 2.74594L20.9183 2.28497V2.28497L20.0309 2.74594ZM18.2541 0.969111L18.715 0.0816973V0.0816968L18.2541 0.969111ZM2.74594 0.969111L3.20691 1.85652L2.74594 0.969111ZM11.1885 7.99329H12.1885V6.99329H11.1885V7.99329ZM8.31304 7.99329V6.99329H7.31304V7.99329H8.31304ZM11.1885 9.31055H10.1885L12.0829 9.75776L11.1885 9.31055ZM17.5546 17.5233V18.5233H18.5546V17.5233H17.5546ZM14.5748 17.5233H13.5748V18.5233H14.5748V17.5233ZM11.3379 17.5233V18.5233H12.3379V17.5233H11.3379ZM8.31304 17.5233H7.31304V18.5233H8.31304V17.5233ZM3.47665 7.9933V6.9933H2.47665V7.9933H3.47665ZM6.50153 7.9933H7.50153V6.9933H6.50153V7.9933ZM3.47665 17.5233H2.47665V18.5233H3.47665V17.5233ZM6.50153 17.5233V18.5233H7.50153V17.5233H6.50153ZM1.5 7.20833C1.5 6.00511 1.5008 5.16384 1.55521 4.50872C1.60862 3.86557 1.70847 3.49192 1.85652 3.20691L0.0816972 2.28497C-0.239363 2.90303 -0.374064 3.57414 -0.437931 4.3432C-0.500804 5.10029 -0.5 6.03868 -0.5 7.20833H1.5ZM1.5 13.7917V7.20833H-0.5V13.7917H1.5ZM1.85652 17.7931C1.70847 17.5081 1.60862 17.1344 1.55521 16.4913C1.5008 15.8362 1.5 14.9949 1.5 13.7917H-0.5C-0.5 14.9613 -0.500804 15.8997 -0.437931 16.6568C-0.374064 17.4259 -0.239363 18.097 0.0816968 18.715L1.85652 17.7931ZM3.20691 19.1435C2.62854 18.843 2.15696 18.3715 1.85652 17.7931L0.0816973 18.715C0.571888 19.6587 1.34131 20.4281 2.28497 20.9183L3.20691 19.1435ZM7.20833 19.5C6.00511 19.5 5.16384 19.4992 4.50872 19.4448C3.86557 19.3914 3.49192 19.2915 3.20691 19.1435L2.28497 20.9183C2.90303 21.2394 3.57414 21.3741 4.3432 21.4379C5.10029 21.5008 6.03868 21.5 7.20833 21.5V19.5ZM13.7917 19.5H7.20833V21.5H13.7917V19.5ZM17.7931 19.1435C17.5081 19.2915 17.1344 19.3914 16.4913 19.4448C15.8362 19.4992 14.9949 19.5 13.7917 19.5V21.5C14.9613 21.5 15.8997 21.5008 16.6568 21.4379C17.4259 21.3741 18.097 21.2394 18.715 20.9183L17.7931 19.1435ZM19.1435 17.7931C18.843 18.3715 18.3715 18.843 17.7931 19.1435L18.715 20.9183C19.6587 20.4281 20.4281 19.6587 20.9183 18.715L19.1435 17.7931ZM19.5 13.7917C19.5 14.9949 19.4992 15.8362 19.4448 16.4913C19.3914 17.1344 19.2915 17.5081 19.1435 17.7931L20.9183 18.715C21.2394 18.097 21.3741 17.4259 21.4379 16.6568C21.5008 15.8997 21.5 14.9613 21.5 13.7917H19.5ZM19.5 7.20833V13.7917H21.5V7.20833H19.5ZM19.1435 3.20691C19.2915 3.49192 19.3914 3.86557 19.4448 4.50872C19.4992 5.16384 19.5 6.00511 19.5 7.20833H21.5C21.5 6.03868 21.5008 5.10029 21.4379 4.3432C21.3741 3.57414 21.2394 2.90303 20.9183 2.28497L19.1435 3.20691ZM17.7931 1.85652C18.3715 2.15696 18.843 2.62854 19.1435 3.20691L20.9183 2.28497C20.4281 1.34131 19.6587 0.571888 18.715 0.0816973L17.7931 1.85652ZM13.7917 1.5C14.9949 1.5 15.8362 1.5008 16.4913 1.55521C17.1344 1.60862 17.5081 1.70847 17.7931 1.85652L18.715 0.0816968C18.097 -0.239363 17.4259 -0.374064 16.6568 -0.437931C15.8997 -0.500804 14.9613 -0.5 13.7917 -0.5V1.5ZM7.20833 1.5H13.7917V-0.5H7.20833V1.5ZM3.20691 1.85652C3.49192 1.70847 3.86557 1.60862 4.50872 1.55521C5.16384 1.5008 6.00511 1.5 7.20833 1.5V-0.5C6.03868 -0.5 5.10029 -0.500804 4.3432 -0.437931C3.57414 -0.374064 2.90303 -0.239363 2.28497 0.0816972L3.20691 1.85652ZM1.85652 3.20691C2.15696 2.62854 2.62854 2.15696 3.20691 1.85652L2.28497 0.0816972C1.34131 0.571887 0.571887 1.34131 0.0816972 2.28497L1.85652 3.20691ZM5.72408 4.97608C5.72408 5.38201 5.39501 5.71108 4.98909 5.71108V7.71108C6.49958 7.71108 7.72408 6.48658 7.72408 4.97608H5.72408ZM4.98909 4.24109C5.39501 4.24109 5.72408 4.57016 5.72408 4.97608H7.72408C7.72408 3.46559 6.49958 2.24109 4.98909 2.24109V4.24109ZM4.25409 4.97608C4.25409 4.57016 4.58316 4.24109 4.98909 4.24109V2.24109C3.47859 2.24109 2.25409 3.46559 2.25409 4.97608H4.25409ZM4.98909 5.71108C4.58316 5.71108 4.25409 5.38201 4.25409 4.97608H2.25409C2.25409 6.48658 3.47859 7.71108 4.98909 7.71108V5.71108ZM11.1885 6.99329H8.31304V8.99329H11.1885V6.99329ZM12.1885 9.31055V7.99329H10.1885V9.31055H12.1885ZM14.0918 6.74997C12.7612 6.74997 11.8124 7.24639 11.1976 7.76731C10.8957 8.02305 10.679 8.28023 10.5346 8.47883C10.4622 8.57853 10.407 8.66482 10.3676 8.73079C10.3479 8.76382 10.332 8.79192 10.3198 8.81425C10.3137 8.82542 10.3086 8.83516 10.3043 8.84337C10.3021 8.84748 10.3002 8.8512 10.2985 8.85454C10.2977 8.8562 10.2969 8.85777 10.2961 8.85924C10.2958 8.85997 10.2954 8.86068 10.2951 8.86137C10.2949 8.86171 10.2946 8.8622 10.2945 8.86237C10.2943 8.86286 10.2941 8.86334 11.1885 9.31055C12.0829 9.75776 12.0827 9.75823 12.0825 9.7587C12.0824 9.75885 12.0821 9.75931 12.082 9.7596C12.0817 9.76019 12.0814 9.76076 12.0811 9.7613C12.0806 9.76239 12.0801 9.76339 12.0796 9.76431C12.0787 9.76614 12.0779 9.76763 12.0773 9.76878C12.0761 9.77109 12.0756 9.77207 12.0757 9.7718C12.076 9.77127 12.079 9.76584 12.0847 9.7562C12.0963 9.73682 12.1187 9.7012 12.1525 9.6546C12.2208 9.56059 12.3318 9.42762 12.4905 9.29321C12.7966 9.03384 13.2994 8.74997 14.0918 8.74997V6.74997ZM18.5546 11.5267C18.5546 9.92369 18.1083 8.67629 17.2168 7.84184C16.3381 7.01941 15.1879 6.74997 14.0918 6.74997V8.74997C14.8897 8.74997 15.4708 8.94701 15.85 9.30199C16.2164 9.64496 16.5546 10.2859 16.5546 11.5267H18.5546ZM18.5546 17.5233V11.5267H16.5546V17.5233H18.5546ZM14.5748 18.5233H17.5546V16.5233H14.5748V18.5233ZM13.5748 12.2533V17.5233H15.5748V12.2533H13.5748ZM12.9967 11.3913C13.2816 11.3913 13.3746 11.4392 13.4042 11.4637C13.4125 11.4706 13.4487 11.5009 13.4875 11.6047C13.5296 11.7174 13.5748 11.9186 13.5748 12.2533H15.5748C15.5748 11.248 15.303 10.4389 14.6791 9.92272C14.0903 9.43559 13.3944 9.39126 12.9967 9.39126V11.3913ZM12.3379 12.4721C12.3379 12.1035 12.3958 11.7943 12.5028 11.6084C12.5475 11.5309 12.5924 11.4891 12.6396 11.4619C12.687 11.4345 12.7899 11.3913 12.9967 11.3913V9.39126C11.9326 9.39126 11.1866 9.8862 10.7696 10.6106C10.4013 11.2503 10.3379 11.9815 10.3379 12.4721H12.3379ZM12.3379 17.5233V12.4721H10.3379V17.5233H12.3379ZM8.31304 18.5233H11.3379V16.5233H8.31304V18.5233ZM7.31304 7.99329V17.5233H9.31304V7.99329H7.31304ZM3.47665 8.9933H6.50153V6.9933H3.47665V8.9933ZM4.47665 17.5233V7.9933H2.47665V17.5233H4.47665ZM6.50153 16.5233H3.47665V18.5233H6.50153V16.5233ZM5.50153 7.9933V17.5233H7.50153V7.9933H5.50153Z" fill="url(#paint1_linear_33_119)" fill-opacity="0.4" mask="url(#path-1-inside-1_33_119)"/>
</g>
<defs>
<linearGradient id="paint0_linear_33_119" x1="10.5" y1="0.5" x2="10.5" y2="20.5" gradientUnits="userSpaceOnUse">
<stop stop-color="white"/>
<stop offset="1" stop-color="white"/>
</linearGradient>
<linearGradient id="paint1_linear_33_119" x1="10.5" y1="0.5" x2="10.5" y2="20.5" gradientUnits="userSpaceOnUse">
<stop stop-color="white"/>
<stop offset="1" stop-color="white" stop-opacity="0"/>
</linearGradient>
</defs>
</svg>
