<svg width="140" height="32" viewBox="0 0 140 32" fill="none" xmlns="http://www.w3.org/2000/svg">
<path d="M4.27956 12.4105L7.02609 10.8265L5.49302 8.17261H19.9111L12.7044 20.6593L11.1713 18.0008L8.42482 19.5894L12.7044 27L25.4041 5H0L4.27956 12.4105Z" fill="white"/>
<path d="M36.7985 22.9688L42.2821 9.95691H39.6611L35.7948 19.3998L31.9098 9.95691H29.2888L34.7724 22.9688H36.7985Z" fill="white"/>
<path d="M45.3826 9.95691V22.9688H55.0671V20.6638H47.8734V17.541H53.9518V15.236H47.8734V12.2619H54.9742V9.95691H45.3826Z" fill="white"/>
<path d="M58.6413 9.95691V22.9688H61.1322V18.3774H64.1621L66.8946 22.9688H69.6642L66.6901 17.9499C68.1957 17.2807 69.1623 15.8494 69.1623 14.1579C69.1623 12.9682 68.7348 11.9645 67.8612 11.1652C67.0061 10.3659 65.9466 9.95691 64.664 9.95691H58.6413ZM64.664 12.2619C65.7607 12.2619 66.56 13.0612 66.56 14.1579C66.56 15.2546 65.7607 16.0725 64.664 16.0725H61.1322V12.2619H64.664Z" fill="white"/>
<path d="M76.3248 12.2619V22.9688H78.8343V12.2619H83.1468V9.95691H72.0123V12.2619H76.3248Z" fill="white"/>
<path d="M86.5384 9.95691V22.9688H96.223V20.6638H89.0293V17.541H95.1077V15.236H89.0293V12.2619H96.13V9.95691H86.5384Z" fill="white"/>
<path d="M103.719 16.3327L98.8863 22.9688H101.879L105.206 18.3774L108.534 22.9688H111.508L106.693 16.3327L111.322 9.95691H108.348L105.206 14.288L102.065 9.95691H99.0722L103.719 16.3327Z" fill="white"/>
</svg>
