<svg width="140" height="32" viewBox="0 0 140 32" fill="none" xmlns="http://www.w3.org/2000/svg">
<path d="M122.615 22.2649C122.209 21.8113 121.864 21.3052 121.59 20.7599C121.157 19.9052 120.558 19.1465 119.83 18.5284C119.101 17.9103 118.257 17.4452 117.348 17.1608C116.552 16.913 115.72 16.8079 114.888 16.8501C115.493 16.8153 116.089 17.0121 116.557 17.4012C117.024 17.7903 117.328 18.3429 117.408 18.9482C117.626 20.2562 118.202 21.4772 119.07 22.4747C119.938 23.4722 121.064 24.207 122.323 24.5971C123.762 25.0426 125.304 25.0186 126.729 24.5285C125.142 24.2678 123.691 23.4693 122.615 22.2649Z" fill="white"/>
<path d="M112.41 16.7208C112.596 17.5284 112.921 18.2977 113.373 18.9941C113.043 18.4884 112.916 17.8784 113.017 17.2844C113.118 16.6904 113.44 16.1555 113.919 15.7852C114.935 14.9504 115.699 13.8519 116.124 12.6119C116.548 11.372 116.618 10.0393 116.325 8.76229C115.991 7.30144 115.197 5.98397 114.059 5C114.626 6.50336 114.658 8.15371 114.151 9.67798C113.957 10.2534 113.687 10.8009 113.349 11.3063C112.829 12.1002 112.475 12.9895 112.308 13.9216C112.141 14.8536 112.163 15.8095 112.374 16.7328L112.41 16.7208Z" fill="white"/>
<path d="M115.957 19.5325C115.688 20.0758 115.226 20.4958 114.665 20.7081C114.104 20.9204 113.485 20.9094 112.932 20.6773C111.713 20.213 110.39 20.1024 109.112 20.3578C107.835 20.6131 106.652 21.2244 105.696 22.1233C104.607 23.1528 103.868 24.5073 103.585 25.9914C104.599 24.7413 106.002 23.8798 107.563 23.5492C108.149 23.4273 108.748 23.3801 109.346 23.4086C110.284 23.458 111.221 23.316 112.104 22.9911C112.987 22.6661 113.797 22.1649 114.486 21.5168C115.089 20.9479 115.589 20.2764 115.964 19.5325H115.957Z" fill="white"/>
<path d="M0 25.8964H3.39823V17.6214C3.39823 16.7048 3.64899 15.9698 4.15051 15.4164C4.65203 14.863 5.3092 14.5863 6.12201 14.5863C6.95211 14.5863 7.60927 14.863 8.0935 15.4164C8.59502 15.9525 8.84578 16.6875 8.84578 17.6214V25.8964H12.244V17.6214C12.244 16.7048 12.4948 15.9698 12.9963 15.4164C13.4978 14.863 14.155 14.5863 14.9678 14.5863C15.7979 14.5863 16.4551 14.863 16.9393 15.4164C17.4408 15.9525 17.6916 16.6875 17.6916 17.6214V25.8964H21.0898V16.8172C21.0898 15.7623 20.8563 14.8371 20.3894 14.0415C19.9398 13.2287 19.3258 12.5975 18.5476 12.1479C17.7694 11.6982 16.8788 11.4734 15.8757 11.4734C14.9418 11.4734 14.0944 11.6636 13.3335 12.0441C12.5899 12.4246 11.976 12.9953 11.4917 13.7562C11.0767 13.0644 10.48 12.511 9.70182 12.096C8.9409 11.6809 8.08485 11.4734 7.13369 11.4734C6.25171 11.4734 5.46484 11.6463 4.77309 11.9922C4.08134 12.3381 3.55388 12.8569 3.19071 13.5487V11.7847H0V25.8964Z" fill="white"/>
<path d="M28.245 26.2077C30.0781 26.2077 31.5481 25.6024 32.6549 24.3919V25.8964H35.8715V16.5059C35.8715 15.5202 35.6208 14.6468 35.1193 13.8859C34.6177 13.125 33.926 12.537 33.044 12.1219C32.1793 11.6896 31.1676 11.4734 30.0089 11.4734C28.5908 11.4734 27.3284 11.8106 26.2216 12.4851C25.1148 13.1596 24.3539 14.0502 23.9388 15.157L26.7145 16.5059C26.9739 15.866 27.3803 15.3559 27.9337 14.9754C28.4871 14.5776 29.1356 14.3788 29.8792 14.3788C30.6575 14.3788 31.28 14.5863 31.747 15.0013C32.2312 15.3991 32.4733 15.9006 32.4733 16.5059V16.9728L28.2709 17.6473C26.6107 17.924 25.3828 18.4515 24.5873 19.2297C23.7918 20.0079 23.3941 20.985 23.3941 22.161C23.3941 23.4061 23.835 24.3919 24.717 25.1182C25.599 25.8446 26.775 26.2077 28.245 26.2077ZM26.922 22.0313C26.922 21.0455 27.5878 20.423 28.9194 20.1635L32.4733 19.5669V20.1376C32.4733 21.1061 32.1361 21.9275 31.4616 22.602C30.8045 23.2764 29.9398 23.6137 28.8675 23.6137C28.2969 23.6137 27.8299 23.4753 27.4667 23.1986C27.1036 22.9046 26.922 22.5155 26.922 22.0313Z" fill="white"/>
<path d="M39.0124 25.8964H42.4106V18.0364C42.4106 16.9642 42.7046 16.1341 43.2926 15.5461C43.8979 14.9408 44.6761 14.6382 45.6273 14.6382H46.8465V11.6291H46.0164C45.1517 11.6291 44.3908 11.7847 43.7336 12.096C43.0764 12.4073 42.5663 12.9693 42.2031 13.7821V11.7847H39.0124V25.8964Z" fill="white"/>
<path d="M55.5281 26.0521C56.0988 26.0521 56.6608 26.0089 57.2142 25.9224V22.9911C56.8857 23.043 56.583 23.0689 56.3063 23.0689C55.4762 23.0689 54.8709 22.8787 54.4905 22.4982C54.11 22.1177 53.9198 21.573 53.9198 20.8639V14.8198H57.1624V11.7847H53.9198V8.56805H50.5215V9.65756C50.5215 10.3493 50.3313 10.8768 49.9509 11.2399C49.5704 11.6031 49.0343 11.7847 48.3425 11.7847H48.0831V14.8198H50.5215V21.0455C50.5215 22.6193 50.9539 23.8471 51.8186 24.7291C52.7006 25.6111 53.9371 26.0521 55.5281 26.0521Z" fill="white"/>
<path d="M59.8105 10.2023H63.2088V6.57062H59.8105V10.2023ZM59.8105 25.8964H63.2088V11.7847H59.8105V25.8964Z" fill="white"/>
<path d="M66.3464 25.8964H69.7446V17.6214C69.7446 16.7048 70.004 15.9698 70.5228 15.4164C71.059 14.863 71.7507 14.5863 72.5981 14.5863C73.4455 14.5863 74.1286 14.863 74.6474 15.4164C75.1835 15.9525 75.4516 16.6875 75.4516 17.6214V25.8964H78.8498V16.8172C78.8498 15.7623 78.625 14.8371 78.1753 14.0415C77.7257 13.2287 77.0945 12.5975 76.2817 12.1479C75.4862 11.6982 74.5696 11.4734 73.532 11.4734C72.65 11.4734 71.8545 11.6463 71.1454 11.9922C70.4537 12.3381 69.9176 12.8483 69.5371 13.5227V11.7847H66.3464V25.8964Z" fill="white"/>
<path d="M88.6236 26.2077C89.9898 26.2077 91.2349 25.8964 92.359 25.2739C93.4831 24.634 94.3824 23.7607 95.0569 22.6539C95.7313 21.5298 96.0686 20.2587 96.0686 18.8406C96.0686 17.4225 95.7313 16.16 95.0569 15.0532C94.3997 13.9464 93.5091 13.0731 92.385 12.4332C91.2609 11.7933 90.0071 11.4734 88.6236 11.4734C87.2228 11.4734 85.9603 11.7933 84.8362 12.4332C83.7121 13.0731 82.8129 13.9464 82.1384 15.0532C81.4812 16.16 81.1527 17.4225 81.1527 18.8406C81.1527 20.2587 81.4812 21.5211 82.1384 22.6279C82.8129 23.7347 83.7121 24.6081 84.8362 25.2479C85.9776 25.8878 87.2401 26.2077 88.6236 26.2077ZM88.6236 23.0948C87.8626 23.0948 87.1795 22.9133 86.5743 22.5501C85.9863 22.1869 85.5193 21.6854 85.1735 21.0455C84.8449 20.3884 84.6806 19.6534 84.6806 18.8406C84.6806 18.0278 84.8449 17.3014 85.1735 16.6616C85.5193 16.0217 85.9863 15.5202 86.5743 15.157C87.1795 14.7765 87.8626 14.5863 88.6236 14.5863C89.3845 14.5863 90.0503 14.7765 90.621 15.157C91.209 15.5202 91.6673 16.0217 91.9959 16.6616C92.3417 17.3014 92.5147 18.0278 92.5147 18.8406C92.5147 19.6534 92.3417 20.3884 91.9959 21.0455C91.6673 21.6854 91.209 22.1869 90.621 22.5501C90.0503 22.9133 89.3845 23.0948 88.6236 23.0948Z" fill="white"/>
</svg>
