<svg width="140" height="32" viewBox="0 0 140 32" fill="none" xmlns="http://www.w3.org/2000/svg">
<path d="M13.7537 7.34004L14.7164 6.37726C16.6071 4.48663 19.6851 4.43983 21.5866 6.31957C22.3071 7.03343 22.7859 7.95505 22.9558 8.95499C23.1256 9.95494 22.9779 10.983 22.5335 11.8947C22.3203 12.3302 22.2485 12.8214 22.328 13.2997C22.4076 13.778 22.6345 14.2196 22.9772 14.5626C23.6073 13.9311 24.1067 13.1815 24.447 12.3569C24.7874 11.5322 24.9619 10.6486 24.9607 9.75646C24.9593 8.86435 24.7824 7.98122 24.4397 7.15753C24.0971 6.33383 23.5954 5.58573 22.9636 4.95594C20.3047 2.312 15.9887 2.36462 13.3372 5.01599L4.16036 14.1926L3.40593 13.4382C1.48323 11.5155 1.47098 8.37263 3.4276 6.4841C4.15185 5.78721 5.07456 5.33228 6.06838 5.18211C7.06221 5.03194 8.07812 5.19394 8.97595 5.64574C9.38575 5.85574 9.85142 5.93086 10.3065 5.86038C10.7615 5.78991 11.1826 5.57743 11.5097 5.25331L11.5331 5.23003C11.5404 5.2228 11.5462 5.2142 11.5501 5.20472C11.554 5.19524 11.5561 5.18508 11.5561 5.17482C11.5561 5.16456 11.554 5.15439 11.5501 5.14492C11.5462 5.13545 11.5404 5.12685 11.5331 5.1196C10.27 3.88827 8.57747 3.19663 6.81352 3.19104C5.04958 3.18545 3.35264 3.86634 2.0818 5.08965C-0.65574 7.73235 -0.645958 12.1269 2.04466 14.8175L11.2188 23.9917L10.2443 24.9662C8.35362 26.8568 5.27552 26.9036 3.37412 25.0239C2.6536 24.3101 2.17479 23.3884 2.00493 22.3885C1.83508 21.3886 1.9827 20.3606 2.42707 19.4488C2.64026 19.0133 2.71211 18.522 2.6326 18.0438C2.55307 17.5655 2.32613 17.1239 1.9835 16.7808C1.35341 17.4124 0.85393 18.1619 0.513596 18.9865C0.173261 19.8113 -0.00125779 20.6948 6.82382e-06 21.587C0.00127144 22.4791 0.178294 23.3623 0.520967 24.1859C0.863638 25.0096 1.36524 25.7578 1.99712 26.3875C4.65592 29.0316 8.97199 28.9791 11.6235 26.3276L20.8122 17.1387L21.5695 17.896C23.4601 19.7866 23.5069 22.8646 21.6272 24.766C20.9134 25.4866 19.9917 25.9654 18.9918 26.1353C17.9919 26.3052 16.9639 26.1575 16.0521 25.7131C15.6164 25.4998 15.125 25.4278 14.6465 25.5076C14.168 25.5872 13.7263 25.8143 13.3833 26.1572C14.0149 26.7874 14.7644 27.2869 15.589 27.6272C16.4137 27.9675 17.2972 28.1421 18.1895 28.1409C19.0815 28.1395 19.9647 27.9625 20.7883 27.6198C21.6121 27.2771 22.3602 26.7755 22.99 26.1436C25.634 23.4848 25.5814 19.1688 22.93 16.5174L13.7537 7.34004ZM12.5887 22.6211L5.53067 15.563L12.3832 8.7106L19.4413 15.7687L12.5887 22.6211Z" fill="white"/>
<path d="M36.6777 23.8568C35.2732 23.8568 34.1995 23.4447 33.4566 22.6206C32.7196 21.7964 32.3075 20.6705 32.2204 19.2428L34.4491 18.6856C34.5593 20.9143 35.3022 22.0286 36.6777 22.0286C37.792 22.0286 38.3492 21.4714 38.3492 20.3571C38.3492 20.0263 38.3027 19.7216 38.2099 19.443C38.1228 19.1586 37.9864 18.9004 37.8007 18.6682C37.615 18.4303 37.4467 18.2417 37.2958 18.1024C37.1449 17.9573 36.9389 17.7803 36.6777 17.5713L33.8919 15.3427C33.3812 14.9422 32.972 14.4344 32.6644 13.8192C32.3626 13.1982 32.2117 12.4931 32.2117 11.7037C32.2117 10.5546 32.5687 9.64052 33.2825 8.96149C33.9964 8.28245 34.9424 7.94293 36.1205 7.94293C37.3858 7.94293 38.3898 8.25343 39.1327 8.87443C39.8814 9.48963 40.3428 10.3631 40.5169 11.4948C40.5343 11.6167 40.5546 11.785 40.5778 11.9997L38.3492 12.5569C38.3434 12.4582 38.3289 12.3102 38.3056 12.1129C38.207 11.4049 37.9835 10.839 37.6353 10.4153C37.2929 9.98585 36.788 9.77111 36.1205 9.77111C35.5866 9.77111 35.1745 9.922 34.8843 10.2238C34.5942 10.5198 34.4491 10.9348 34.4491 11.4687C34.4491 12.3451 34.8205 13.0792 35.5634 13.6712L38.3492 15.8998C39.8349 17.1012 40.5778 18.5376 40.5778 20.2091C40.5778 21.3525 40.2238 22.2462 39.5157 22.8904C38.8135 23.5347 37.8675 23.8568 36.6777 23.8568Z" fill="white"/>
<path d="M45.2353 22.0286C45.8215 22.0286 46.3786 21.8777 46.9068 21.5759V14.6811C46.8836 14.6695 46.8255 14.6346 46.7327 14.5766C46.6398 14.5186 46.5731 14.4808 46.5324 14.4634C46.4976 14.4402 46.4367 14.4054 46.3496 14.359C46.2626 14.3125 46.19 14.2806 46.132 14.2632C46.0797 14.24 46.0101 14.2168 45.923 14.1936C45.8418 14.1645 45.7605 14.1442 45.6793 14.1326C45.6038 14.121 45.5226 14.1152 45.4355 14.1152C45.2498 14.1152 45.0844 14.1587 44.9393 14.2458C44.8 14.327 44.684 14.4257 44.5911 14.5418C44.4982 14.6578 44.417 14.8233 44.3473 15.038C44.2835 15.2527 44.2371 15.4443 44.208 15.6126C44.179 15.7751 44.1558 15.9956 44.1384 16.2742C44.121 16.547 44.1094 16.7588 44.1036 16.9097C44.1036 17.0606 44.1036 17.2724 44.1036 17.5452C44.1036 17.5568 44.1036 17.5655 44.1036 17.5713C44.1036 17.67 44.1036 17.8296 44.1036 18.0501C44.1036 18.2707 44.1036 18.4825 44.1036 18.6856C44.1036 18.8888 44.1036 19.0803 44.1036 19.2602C44.1094 19.6491 44.1268 19.9915 44.1558 20.2875C44.1906 20.5777 44.2458 20.8649 44.3212 21.1493C44.4025 21.4279 44.5185 21.6455 44.6694 21.8022C44.8261 21.9531 45.0148 22.0286 45.2353 22.0286ZM46.9068 27.043V22.6989C46.576 23.0413 46.2335 23.3199 45.8795 23.5347C45.5313 23.7494 45.1308 23.8568 44.6781 23.8568C44.2487 23.8568 43.8656 23.7494 43.529 23.5347C43.1982 23.3141 42.9312 23.0326 42.7281 22.6902C42.5308 22.3478 42.3654 21.9444 42.2319 21.4801C42.1042 21.01 42.0142 20.5486 41.962 20.0959C41.9156 19.6433 41.8924 19.1732 41.8924 18.6856V16.988C41.8924 16.4831 41.9156 16.0217 41.962 15.6039C42.0084 15.186 42.0926 14.7739 42.2145 14.3677C42.3363 13.9614 42.4959 13.619 42.6933 13.3404C42.8964 13.056 43.1634 12.8297 43.4942 12.6614C43.825 12.4873 44.208 12.4002 44.6433 12.4002C44.8929 12.4002 45.125 12.435 45.3398 12.5047C45.5603 12.5685 45.7692 12.673 45.9666 12.8181C46.1697 12.9632 46.3264 13.0908 46.4367 13.2011C46.5528 13.3056 46.7095 13.4623 46.9068 13.6712V12.5569H49.1354V27.043H46.9068Z" fill="white"/>
<path d="M52.5132 23.8568C52.0257 23.8568 51.6339 23.6856 51.3379 23.3431C51.0419 22.9949 50.8939 22.5654 50.8939 22.0547V12.5569H53.1226V21.3757C53.1226 21.6078 53.1922 21.7964 53.3315 21.9415C53.4766 22.0866 53.6623 22.1592 53.8887 22.1592C54.0105 22.1592 54.1295 22.1447 54.2456 22.1156C54.3617 22.0866 54.4748 22.0373 54.5851 21.9676C54.7012 21.8922 54.7911 21.8342 54.855 21.7935C54.9188 21.7471 55.0088 21.6717 55.1249 21.5672C55.2467 21.4627 55.3222 21.3989 55.3512 21.3757V12.5569H57.5798V23.7001H55.3512V22.4987C55.1307 22.6902 54.9682 22.8295 54.8637 22.9166C54.765 23.0036 54.6112 23.1226 54.4023 23.2735C54.1934 23.4186 54.0076 23.526 53.8451 23.5956C53.6884 23.6594 53.4911 23.7175 53.2532 23.7697C53.0152 23.8277 52.7685 23.8568 52.5132 23.8568Z" fill="white"/>
<path d="M62.5769 22.0286C62.7336 22.0286 62.8845 21.9822 63.0295 21.8893C63.1804 21.7964 63.2936 21.7065 63.3691 21.6194C63.4445 21.5324 63.5374 21.4163 63.6476 21.2712C63.6651 21.2422 63.6796 21.2219 63.6912 21.2103V18.1285C63.5983 18.1923 63.4445 18.291 63.2298 18.4245C63.015 18.558 62.8438 18.6682 62.7161 18.7553C62.5885 18.8365 62.4347 18.9526 62.2547 19.1035C62.0748 19.2486 61.9355 19.3908 61.8369 19.5301C61.7382 19.6636 61.6512 19.829 61.5757 20.0263C61.5003 20.2236 61.4625 20.4297 61.4625 20.6444C61.4625 21.5672 61.834 22.0286 62.5769 22.0286ZM61.4625 23.8568C60.8415 23.8568 60.3134 23.5898 59.8781 23.0558C59.4486 22.5161 59.2339 21.9096 59.2339 21.2364C59.2339 20.6966 59.3239 20.2062 59.5038 19.7651C59.6895 19.324 59.8839 18.9729 60.0871 18.7118C60.2902 18.4448 60.6297 18.172 61.1056 17.8934C61.5815 17.609 61.9413 17.4146 62.1851 17.3102C62.4289 17.2057 62.8525 17.0345 63.4561 16.7965C63.5606 16.7559 63.6389 16.724 63.6912 16.7008V15.8998C63.6912 15.3369 63.6128 14.9016 63.4561 14.594C63.2994 14.2806 63.0063 14.1239 62.5769 14.1239C62.1938 14.1239 61.9181 14.2574 61.7498 14.5244C61.5873 14.7855 61.4945 15.1483 61.4712 15.6126C61.4654 15.6764 61.4625 15.7722 61.4625 15.8998H59.2339C59.2455 14.832 59.5444 13.9817 60.1306 13.3491C60.7168 12.7165 61.5322 12.4002 62.5769 12.4002C63.6157 12.4002 64.4311 12.7223 65.0231 13.3665C65.6209 14.0049 65.9198 14.8494 65.9198 15.8998V20.9143C65.9198 22.075 66.0156 23.0036 66.2071 23.7001H63.9872L63.6912 22.0286C63.5751 22.2607 63.4793 22.4407 63.4039 22.5683C63.3342 22.696 63.2298 22.8556 63.0905 23.0471C62.9512 23.2329 62.8119 23.378 62.6726 23.4824C62.5333 23.5811 62.3592 23.6681 62.1503 23.7436C61.9413 23.819 61.7121 23.8568 61.4625 23.8568Z" fill="white"/>
<path d="M67.8437 23.7001V12.5569H70.0724V14.0456C70.2987 13.6045 70.6266 13.2214 71.0561 12.8964C71.4914 12.5656 71.9731 12.4002 72.5012 12.4002C72.5186 12.4002 72.6376 12.4118 72.8582 12.435V14.8987C72.4461 14.7362 72.034 14.6549 71.622 14.6549C71.1577 14.6549 70.7833 14.7942 70.4989 15.0728C70.2146 15.3514 70.0724 15.7199 70.0724 16.1784V23.7001H67.8437Z" fill="white"/>
<path d="M76.9498 23.8568C76.41 23.8568 75.9399 23.7639 75.5395 23.5782C75.1448 23.3925 74.8285 23.1516 74.5906 22.8556C74.3584 22.5538 74.1698 22.1708 74.0247 21.7065C73.8796 21.2364 73.7781 20.7692 73.72 20.3049C73.6678 19.8348 73.6359 19.2892 73.6243 18.6682C73.6068 18.1807 73.6068 17.6932 73.6243 17.2057C73.6417 16.6253 73.6794 16.1117 73.7374 15.6648C73.8013 15.2121 73.9086 14.7739 74.0595 14.3503C74.2104 13.9266 74.4049 13.5784 74.6428 13.3056C74.8866 13.0328 75.2029 12.8152 75.5917 12.6527C75.9864 12.4844 76.4449 12.4002 76.9672 12.4002C77.4431 12.4002 77.861 12.464 78.2208 12.5917C78.5864 12.7136 78.8882 12.9022 79.1262 13.1576C79.37 13.4071 79.5702 13.6857 79.7269 13.9933C79.8894 14.3009 80.0113 14.6753 80.0925 15.1163C80.1738 15.5516 80.2289 15.9811 80.2579 16.4048C80.2927 16.8284 80.3102 17.316 80.3102 17.8673V18.1285H75.8529V18.6856C75.8529 18.7611 75.8529 18.8801 75.8529 19.0426C75.8413 19.2573 75.8384 19.4807 75.8442 19.7129C75.8558 19.9392 75.8674 20.1627 75.879 20.3832C75.8906 20.6038 75.9225 20.8156 75.9748 21.0187C76.027 21.2161 76.0908 21.3902 76.1663 21.5411C76.2417 21.692 76.3462 21.8109 76.4797 21.898C76.619 21.9851 76.7815 22.0286 76.9672 22.0286C77.1994 22.0286 77.3909 21.9851 77.5418 21.898C77.6927 21.8051 77.8029 21.6688 77.8726 21.4888C77.948 21.3089 78.0003 21.129 78.0293 20.9491C78.0583 20.7692 78.0757 20.5428 78.0815 20.2701V19.8H80.2927V20.2439C80.2405 21.4337 79.9474 22.3333 79.4135 22.9427C78.8795 23.5521 78.0583 23.8568 76.9498 23.8568ZM75.8529 17.0142H78.0641V16.3438C78.0583 16.0478 78.0409 15.7896 78.0119 15.569C77.9829 15.3485 77.9306 15.128 77.8552 14.9074C77.7855 14.6869 77.6753 14.5186 77.5244 14.4025C77.3735 14.2864 77.1877 14.2284 76.9672 14.2284C76.7409 14.2284 76.5493 14.2893 76.3926 14.4112C76.2417 14.5331 76.1286 14.7101 76.0531 14.9422C75.9835 15.1686 75.9341 15.392 75.9051 15.6126C75.8761 15.8331 75.8587 16.0972 75.8529 16.4048V17.0142Z" fill="white"/>
<path d="M86.0907 23.8568C84.6862 23.8568 83.6125 23.4447 82.8696 22.6206C82.1325 21.7964 81.7205 20.6705 81.6334 19.2428L83.862 18.6856C83.9723 20.9143 84.7152 22.0286 86.0907 22.0286C87.205 22.0286 87.7621 21.4714 87.7621 20.3571C87.7621 20.0263 87.7157 19.7216 87.6229 19.443C87.5358 19.1586 87.3994 18.9004 87.2137 18.6682C87.028 18.4303 86.8597 18.2417 86.7088 18.1024C86.5579 17.9573 86.3518 17.7803 86.0907 17.5713L83.3049 15.3427C82.7942 14.9422 82.385 14.4344 82.0774 13.8192C81.7756 13.1982 81.6247 12.4931 81.6247 11.7037C81.6247 10.5546 81.9816 9.64052 82.6955 8.96149C83.4093 8.28245 84.3554 7.94293 85.5335 7.94293C86.7987 7.94293 87.8028 8.25343 88.5457 8.87443C89.2943 9.48963 89.7557 10.3631 89.9298 11.4948C89.9473 11.6167 89.9676 11.785 89.9908 11.9997L87.7621 12.5569C87.7563 12.4582 87.7418 12.3102 87.7186 12.1129C87.62 11.4049 87.3965 10.839 87.0483 10.4153C86.7059 9.98585 86.2009 9.77111 85.5335 9.77111C84.9996 9.77111 84.5875 9.922 84.2973 10.2238C84.0071 10.5198 83.862 10.9348 83.862 11.4687C83.862 12.3451 84.2335 13.0792 84.9764 13.6712L87.7621 15.8998C89.2479 17.1012 89.9908 18.5376 89.9908 20.2091C89.9908 21.3525 89.6368 22.2462 88.9287 22.8904C88.2264 23.5347 87.2804 23.8568 86.0907 23.8568Z" fill="white"/>
<path d="M94.6135 23.8568C93.7371 23.8568 93.0987 23.6333 92.6982 23.1864C92.3036 22.7395 92.1004 22.0634 92.0888 21.158V14.2284H90.9745V12.5569H92.0888V8.65679H94.3175V12.5569H95.9889V14.2284H94.3175V20.7315C94.3175 21.1783 94.3784 21.5063 94.5003 21.7152C94.6222 21.9241 94.8688 22.0286 95.2403 22.0286C95.4028 22.0286 95.6523 21.9996 95.9889 21.9415V23.7523C95.4318 23.8219 94.9733 23.8568 94.6135 23.8568Z" fill="white"/>
<path d="M103.249 22.8121C102.733 23.5085 101.877 23.8568 100.681 23.8568C99.4857 23.8568 98.6296 23.5085 98.1131 22.8121C97.5966 22.1156 97.3383 21.1116 97.3383 19.8V16.457C97.3383 15.1454 97.5966 14.1413 98.1131 13.4449C98.6296 12.7484 99.4857 12.4002 100.681 12.4002C101.877 12.4002 102.733 12.7484 103.249 13.4449C103.766 14.1413 104.024 15.1454 104.024 16.457V19.8C104.024 21.1116 103.766 22.1156 103.249 22.8121ZM100.263 21.9589C100.385 22.0054 100.525 22.0286 100.681 22.0286C100.838 22.0286 100.974 22.0054 101.09 21.9589C101.212 21.9125 101.311 21.8574 101.386 21.7935C101.468 21.7239 101.534 21.6252 101.587 21.4975C101.639 21.3641 101.679 21.248 101.709 21.1493C101.738 21.0507 101.758 20.9085 101.769 20.7227C101.781 20.537 101.787 20.3919 101.787 20.2875C101.793 20.1772 101.796 20.0147 101.796 19.8V16.457C101.796 16.2423 101.793 16.0827 101.787 15.9782C101.787 15.8679 101.781 15.7199 101.769 15.5342C101.758 15.3485 101.738 15.2063 101.709 15.1076C101.679 15.009 101.639 14.8958 101.587 14.7681C101.534 14.6346 101.468 14.536 101.386 14.4721C101.311 14.4025 101.212 14.3444 101.09 14.298C100.974 14.2516 100.838 14.2284 100.681 14.2284C100.525 14.2284 100.385 14.2516 100.263 14.298C100.147 14.3444 100.049 14.4025 99.9674 14.4721C99.8919 14.536 99.8281 14.6346 99.7759 14.7681C99.7236 14.8958 99.683 15.009 99.654 15.1076C99.625 15.2063 99.6047 15.3485 99.5931 15.5342C99.5814 15.7199 99.5727 15.8679 99.5669 15.9782C99.5669 16.0827 99.5669 16.2423 99.5669 16.457V19.8C99.5669 20.0147 99.5669 20.1772 99.5669 20.2875C99.5727 20.3919 99.5814 20.537 99.5931 20.7227C99.6047 20.9085 99.625 21.0507 99.654 21.1493C99.683 21.248 99.7236 21.3641 99.7759 21.4975C99.8281 21.6252 99.8919 21.7239 99.9674 21.7935C100.049 21.8574 100.147 21.9125 100.263 21.9589Z" fill="white"/>
<path d="M105.852 23.7001V12.5569H108.081V13.7583C108.412 13.4565 108.682 13.2272 108.891 13.0705C109.1 12.908 109.387 12.7571 109.752 12.6178C110.124 12.4727 110.519 12.4002 110.936 12.4002C111.412 12.4002 111.798 12.5743 112.094 12.9225C112.39 13.2708 112.538 13.6973 112.538 14.2023V23.7001H110.31V15.3427C110.31 14.9538 110.255 14.6724 110.144 14.4982C110.034 14.3183 109.811 14.2284 109.474 14.2284C109.282 14.2284 109.091 14.269 108.899 14.3503C108.714 14.4257 108.574 14.4982 108.481 14.5679C108.389 14.6317 108.255 14.7362 108.081 14.8813V23.7001H105.852Z" fill="white"/>
<path d="M117.64 23.8568C117.1 23.8568 116.63 23.7639 116.229 23.5782C115.835 23.3925 115.518 23.1516 115.281 22.8556C115.048 22.5538 114.86 22.1708 114.715 21.7065C114.57 21.2364 114.468 20.7692 114.41 20.3049C114.358 19.8348 114.326 19.2892 114.314 18.6682C114.297 18.1807 114.297 17.6932 114.314 17.2057C114.332 16.6253 114.369 16.1117 114.427 15.6648C114.491 15.2121 114.599 14.7739 114.749 14.3503C114.9 13.9266 115.095 13.5784 115.333 13.3056C115.577 13.0328 115.893 12.8152 116.282 12.6527C116.676 12.4844 117.135 12.4002 117.657 12.4002C118.133 12.4002 118.551 12.464 118.911 12.5917C119.276 12.7136 119.578 12.9022 119.816 13.1576C120.06 13.4071 120.26 13.6857 120.417 13.9933C120.579 14.3009 120.701 14.6753 120.782 15.1163C120.864 15.5516 120.919 15.9811 120.948 16.4048C120.983 16.8284 121 17.316 121 17.8673V18.1285H116.543V18.6856C116.543 18.7611 116.543 18.8801 116.543 19.0426C116.531 19.2573 116.528 19.4807 116.534 19.7129C116.546 19.9392 116.557 20.1627 116.569 20.3832C116.581 20.6038 116.612 20.8156 116.665 21.0187C116.717 21.2161 116.781 21.3902 116.856 21.5411C116.932 21.692 117.036 21.8109 117.17 21.898C117.309 21.9851 117.471 22.0286 117.657 22.0286C117.889 22.0286 118.081 21.9851 118.232 21.898C118.383 21.8051 118.493 21.6688 118.563 21.4888C118.638 21.3089 118.69 21.129 118.719 20.9491C118.748 20.7692 118.766 20.5428 118.771 20.2701V19.8H120.983V20.2439C120.93 21.4337 120.637 22.3333 120.103 22.9427C119.569 23.5521 118.748 23.8568 117.64 23.8568ZM116.543 17.0142H118.754V16.3438C118.748 16.0478 118.731 15.7896 118.702 15.569C118.673 15.3485 118.621 15.128 118.545 14.9074C118.475 14.6869 118.365 14.5186 118.214 14.4025C118.063 14.2864 117.878 14.2284 117.657 14.2284C117.431 14.2284 117.239 14.2893 117.083 14.4112C116.932 14.5331 116.819 14.7101 116.743 14.9422C116.673 15.1686 116.624 15.392 116.595 15.6126C116.566 15.8331 116.549 16.0972 116.543 16.4048V17.0142Z" fill="white"/>
</svg>
