<?xml version="1.0" encoding="utf-8"?>
<!-- Generator: Adobe Illustrator 25.4.1, SVG Export Plug-In . SVG Version: 6.00 Build 0)  -->
<svg version="1.1" id="Layer_1" xmlns="http://www.w3.org/2000/svg" xmlns:xlink="http://www.w3.org/1999/xlink" x="0px" y="0px"
	 viewBox="0 0 707.2 205.23" style="enable-background:new 0 0 707.2 205.23;" xml:space="preserve">
<style type="text/css">
	.st0{fill:url(#SVGID_1_);}
	.st1{fill:#FFFFFF;}
</style>
<g>
	<g>
		<linearGradient id="SVGID_1_" gradientUnits="userSpaceOnUse" x1="7.1079" y1="102.6163" x2="197.8435" y2="102.6163">
			<stop  offset="0" style="stop-color:#0CE08F"/>
			<stop  offset="1" style="stop-color:#32BEF1"/>
		</linearGradient>
		<circle class="st0" cx="102.48" cy="102.62" r="95.37"/>
		<g>
			<path class="st1" d="M173.73,113.84c0-7.72-4.12-13.17-12.26-16.23c3.49-3.36,5.88-9.37,5.88-14.11
				c0-7.82-5.98-14.45-13.24-14.45c0,0,0,0,0,0c-0.32-0.02-1.22-0.06-2.28,0.05c2.7-7.19,0.37-15.33-6.01-19.32
				c-3.73-2.32-8.24-2.86-12.55-1.56c-2.64-3.32-6.54-5.29-10.65-5.29c-7.7,0-13.96,6.66-13.96,14.85c0,0.11,0.01,0.21,0.04,0.31
				v6.11c-1.41,0.56-2.41,1.93-2.41,3.54c0,1.61,1,2.98,2.41,3.54v39.99c-0.04,0.19-0.04,0.39,0,0.58v49.07c0,0.01,0,0.02,0,0.02
				c0,0.79,0.65,1.43,1.44,1.43c0,0,0,0,0,0c7.63-0.02,13.97-5.6,15.6-13.21c3.33,3.28,7.68,5.11,12.33,5.11
				c10.01,0,18.15-8.64,18.22-19.29c0-0.01,0-0.02,0-0.03c0-0.03,0-0.06,0-0.1c0-0.07,0-0.13,0-0.2
				C166.17,133.48,173.73,124.62,173.73,113.84z M154.02,71.92c5.77,0,10.46,5.35,10.46,11.58c0,3.74-1.96,8.74-4.59,11.6
				c-0.65-0.51-1.45-0.82-2.34-0.82c-0.67,0-1.28,0.19-1.83,0.49l-14.52-9.09l2.88-4.26c0.37,0.12,0.75,0.2,1.15,0.2
				c2.1,0,3.81-1.71,3.81-3.81c0-0.92-0.34-1.76-0.89-2.42l1.96-2.9C150.72,72.04,152.53,71.83,154.02,71.92z M128.59,142.74
				c-0.43-0.68-1.07-1.22-1.84-1.51l2.28-16.99c0.38-0.16,0.72-0.38,1.03-0.65l20.67,10.76L128.59,142.74z M131.36,121.02
				c0.01-0.1,0.03-0.2,0.03-0.31c0-1.22-0.59-2.3-1.49-3l2.09-15.6l19.05,29.17L131.36,121.02z M127.11,116.94
				c-0.74,0.09-1.41,0.39-1.95,0.84l-13.6-7.08V99.52h17.89L127.11,116.94z M112.2,70.9l24.96,15.62l-6.84,10.12h-18.77v-25.4
				C111.79,71.16,112,71.04,112.2,70.9z M139.6,88.06l13.72,8.59h-19.53L139.6,88.06z M144.29,52.21
				c5.99,3.74,7.58,12.04,3.55,18.51l-2.23,3.3c-0.12-0.01-0.24-0.04-0.37-0.04c-2.1,0-3.81,1.71-3.81,3.81
				c0,0.64,0.17,1.23,0.45,1.76l-3.1,4.59l-24.96-15.62c0.05-0.25,0.08-0.51,0.08-0.78c0-0.31-0.05-0.61-0.12-0.91l11.82-9.42
				c0.49,0.23,1.02,0.36,1.6,0.36c2.1,0,3.81-1.71,3.81-3.81c0-0.27-0.03-0.53-0.08-0.79l2.53-2.01
				C137.15,49.84,141.09,50.22,144.29,52.21z M122.61,45.8c3.09,0,6.05,1.42,8.13,3.84l-1.44,1.15c-0.6-0.4-1.33-0.64-2.11-0.64
				c-2.1,0-3.81,1.71-3.81,3.81c0,0.47,0.1,0.92,0.25,1.34l-11.55,9.2c-0.17-0.1-0.34-0.2-0.52-0.28v-6.33
				c0-0.1-0.01-0.19-0.03-0.28C111.61,51.08,116.55,45.8,122.61,45.8z M111.56,159.41v-45.46l12.25,6.38
				c-0.01,0.13-0.04,0.25-0.04,0.38c0,1.59,0.98,2.95,2.36,3.52l-2.29,17.05c-1.34,0.59-2.28,1.93-2.28,3.49c0,1.23,0.59,2.3,1.49,3
				C122.05,153.97,117.4,158.72,111.56,159.41z M138.05,151.4c-3.72,0-7.21-1.42-9.97-3.96c0.49-0.49,0.83-1.12,0.99-1.82
				l24.25-9.19C152.59,144.82,146.03,151.4,138.05,151.4z M154.91,131.92l-21.16-32.4h20.28c0.57,1.39,1.93,2.37,3.53,2.37
				c1.25,0,2.35-0.61,3.05-1.54c6.88,2.63,10.25,7.06,10.25,13.48C170.85,123.52,163.86,131.42,154.91,131.92z"/>
			<path class="st1" d="M100.7,57.78c0-8.19-6.66-14.85-14.85-14.85c-4.15,0-8.11,1.76-10.91,4.78c-3.02-2.99-7.17-4.84-11.75-4.84
				c-9.21,0-16.7,7.49-16.7,16.7c0,3.55,1.11,6.91,3.14,9.73C43.2,70.5,38.3,76.16,38.3,82.95c0,4.75,2.39,8.94,6.03,11.45
				c-7.84,3.17-13.11,10.8-13.11,19.44c0,10.82,8.1,19.7,18.69,20.84c0,0.06-0.01,0.12-0.01,0.19c0,10.7,8.71,19.41,19.41,19.41
				c5.13,0,9.79-2.02,13.26-5.28c1.68,7.69,8.46,13.36,16.64,13.38c0,0,0,0,0,0c0.1,0,0.2-0.01,0.29-0.03
				c0.06-0.01,0.13-0.04,0.19-0.06c0.03-0.01,0.06-0.01,0.08-0.03c0.07-0.03,0.13-0.07,0.19-0.1c0.02-0.01,0.04-0.02,0.05-0.03
				c0.06-0.04,0.11-0.08,0.16-0.13c0.02-0.02,0.04-0.03,0.06-0.05c0.05-0.05,0.09-0.1,0.13-0.15c0.02-0.02,0.04-0.04,0.05-0.06
				c0.03-0.05,0.06-0.1,0.09-0.16c0.01-0.03,0.03-0.06,0.05-0.08c0.02-0.05,0.03-0.1,0.05-0.15c0.01-0.04,0.03-0.08,0.04-0.12
				c0.01-0.05,0.01-0.09,0.01-0.14c0.01-0.05,0.02-0.1,0.02-0.15c0,0,0,0,0,0c0,0,0,0,0,0V148.6c0,0,0,0,0,0V58.1
				C100.69,57.99,100.7,57.89,100.7,57.78z M85.09,146.14c2.28-3.18,3.64-7.07,3.64-11.27c0-0.79-0.64-1.44-1.44-1.44
				s-1.44,0.64-1.44,1.44c0,9.12-7.42,16.53-16.53,16.53c-9.12,0-16.53-7.42-16.53-16.53c0-9.12,7.42-16.53,16.53-16.53
				c0.79,0,1.44-0.64,1.44-1.44c0-0.79-0.64-1.44-1.44-1.44c-9.66,0-17.68,7.11-19.15,16.36c-9.11-1.01-16.07-8.67-16.07-17.98
				c0-8.27,5.58-15.48,13.57-17.54c0.11-0.03,0.2-0.07,0.3-0.11c1.34,0.43,2.76,0.67,4.24,0.67c5.43,0,10.39-3.19,12.65-8.12
				c0.33-0.72,0.01-1.57-0.71-1.91c-0.72-0.33-1.58-0.01-1.91,0.71c-1.79,3.92-5.73,6.45-10.04,6.45c-6.08,0-11.03-4.95-11.03-11.03
				c0-6.08,4.95-11.03,11.03-11.03c0.06,0,0.12-0.01,0.17-0.02c0.05,0.01,0.11,0.03,0.16,0.03c0.37,0,0.75-0.15,1.03-0.44
				c0.55-0.57,0.54-1.48-0.03-2.03c-2.7-2.63-4.18-6.14-4.18-9.9c0-7.62,6.2-13.83,13.83-13.83c7.63,0,13.84,6.2,13.84,13.83
				c0,0.42-0.02,0.85-0.07,1.34c-0.08,0.79,0.5,1.49,1.29,1.57c0.79,0.07,1.49-0.5,1.57-1.29c0.06-0.58,0.08-1.1,0.08-1.62
				c0-3.59-1.15-6.9-3.08-9.63c2.26-2.6,5.56-4.13,9.03-4.13c6.02,0,11.01,4.47,11.84,10.27c-0.52-0.07-1.05-0.12-1.58-0.12
				c-6.2,0-11.24,5.05-11.24,11.25c0,0.79,0.64,1.44,1.44,1.44c0.79,0,1.44-0.64,1.44-1.44c0-4.62,3.75-8.37,8.36-8.37
				c0.57,0,1.13,0.05,1.68,0.16v54.39c-1.33,1.32-3.12,2.07-5.01,2.08c-0.01,0-0.01,0-0.02,0c-1.9,0-3.69-0.74-5.04-2.08
				c-1.35-1.35-2.1-3.14-2.1-5.04c0-0.79-0.64-1.43-1.44-1.43c0,0,0,0,0,0c-0.79,0-1.44,0.65-1.43,1.44
				c0.01,2.67,1.05,5.19,2.95,7.07c1.89,1.88,4.4,2.92,7.06,2.92c0.01,0,0.02,0,0.02,0c1.78,0,3.5-0.48,5-1.35v29.58
				c-4.22-2.09-4.63-7.44-4.64-7.7c-0.05-0.79-0.72-1.4-1.52-1.35c-0.79,0.05-1.4,0.72-1.35,1.52c0.17,2.98,1.98,8.78,7.51,10.64
				v9.76C90.89,158.73,85.5,153.16,85.09,146.14z"/>
			<path class="st1" d="M61.18,54.24c1.84-0.71,3.85-0.67,5.66,0.13c1.81,0.8,3.19,2.25,3.91,4.09c0.29,0.74,1.12,1.11,1.86,0.82
				c0.74-0.29,1.11-1.12,0.82-1.86c-2.04-5.28-8-7.91-13.28-5.87c-5.28,2.04-7.91,8-5.86,13.28c0.22,0.57,0.76,0.92,1.34,0.92
				c0.17,0,0.35-0.03,0.52-0.1c0.74-0.29,1.11-1.12,0.82-1.86C55.49,60,57.38,55.71,61.18,54.24z"/>
			<path class="st1" d="M68.99,72.66c1.95,0.29,3.68,1.32,4.85,2.9c0.47,0.64,1.37,0.77,2.01,0.3c0.64-0.47,0.77-1.37,0.3-2.01
				c-1.64-2.2-4.03-3.63-6.74-4.03c-2.71-0.4-5.42,0.28-7.62,1.92c-4.54,3.38-5.49,9.82-2.12,14.36c0.28,0.38,0.72,0.58,1.15,0.58
				c0.3,0,0.6-0.09,0.86-0.28c0.64-0.47,0.77-1.37,0.3-2.01c-2.43-3.27-1.75-7.91,1.52-10.34C65.09,72.86,67.04,72.37,68.99,72.66z"
				/>
			<path class="st1" d="M82.38,83.81c2.24-2.24,3.25-5.34,2.82-8.43c-0.04-1.95-1.63-3.52-3.59-3.52c-1.98,0-3.59,1.61-3.59,3.59
				c0,1.98,1.61,3.59,3.59,3.59c0.15,0,0.3-0.03,0.44-0.04c-0.35,1.03-0.92,1.99-1.71,2.78c-2.78,2.78-7.31,2.78-10.1,0
				c-0.56-0.56-1.47-0.56-2.03,0c-0.56,0.56-0.56,1.47,0,2.03c1.95,1.95,4.52,2.93,7.08,2.93C77.86,86.74,80.43,85.77,82.38,83.81z"
				/>
			<path class="st1" d="M71.88,103.89c0.79,0.11,1.51-0.43,1.63-1.22c0.28-1.95,1.31-3.68,2.89-4.86c1.58-1.18,3.53-1.68,5.48-1.39
				c4.03,0.59,6.84,4.34,6.25,8.38c-0.11,0.79,0.43,1.51,1.22,1.63c0.07,0.01,0.14,0.02,0.21,0.02c0.7,0,1.32-0.52,1.42-1.23
				c0.81-5.6-3.08-10.82-8.69-11.63c-5.6-0.81-10.82,3.08-11.63,8.69C70.55,103.05,71.1,103.78,71.88,103.89z"/>
			<path class="st1" d="M78.18,133.09c-0.78-0.15-1.53,0.35-1.69,1.13c-0.34,1.69-1.56,3.64-1.56,3.64c-1.32,2-3.55,3.2-5.94,3.21
				c-0.01,0-0.01,0-0.02,0c-3.93,0-7.13-3.19-7.14-7.12c0-0.79-0.64-1.43-1.44-1.43c0,0,0,0,0,0c-0.79,0-1.44,0.65-1.43,1.44
				c0.01,2.67,1.05,5.19,2.95,7.07c1.89,1.88,4.4,2.92,7.06,2.92c0.01,0,0.02,0,0.02,0c3.36-0.01,6.48-1.69,8.35-4.52
				c0.06-0.1,1.53-2.42,1.97-4.65C79.46,134.01,78.96,133.25,78.18,133.09z"/>
			<path class="st1" d="M56.19,104.4c-2.07-1.8-4.71-2.69-7.45-2.5c-2.74,0.19-5.23,1.43-7.04,3.5c-3.72,4.27-3.27,10.76,0.99,14.48
				c0.27,0.24,0.61,0.35,0.94,0.35c0.4,0,0.8-0.17,1.08-0.49c0.52-0.6,0.46-1.51-0.14-2.03c-3.07-2.68-3.39-7.36-0.72-10.43
				c1.75-2.01,4.35-2.83,6.8-2.42c-0.65,0.71-1.06,1.65-1.06,2.69c0,2.21,1.79,4,4,4c2.21,0,4-1.79,4-4c0-1.09-0.44-2.08-1.15-2.81
				C56.39,104.62,56.3,104.51,56.19,104.4z"/>
			<path class="st1" d="M78.46,118.66c-0.01,0-0.01,0-0.02,0c-5.66,0.01-10.26,4.63-10.24,10.29c0,0.15,0.03,0.3,0.08,0.44
				c0.08,1.01,0.54,1.99,1.36,2.71c1.67,1.45,4.2,1.27,5.65-0.4s1.27-4.2-0.4-5.65c-0.79-0.68-1.76-0.99-2.72-0.97
				c1.3-2.12,3.62-3.54,6.29-3.55c0.01,0,0.01,0,0.02,0c4.07,0,7.38,3.31,7.39,7.38c0,0.79,0.64,1.43,1.44,1.43c0,0,0,0,0,0
				c0.79,0,1.44-0.65,1.43-1.44C88.71,123.26,84.11,118.66,78.46,118.66z"/>
		</g>
	</g>
	<g>
		<g>
			<path class="st1" d="M224.52,138.76v24.16c0,1.31-0.97,2.27-2.23,2.27c-1.26,0-2.23-0.97-2.23-2.27v-24.16
				c0-1.31,0.93-2.27,2.23-2.27C223.55,136.49,224.52,137.46,224.52,138.76z M241.99,163.13c0,1.14-0.97,2.06-2.06,2.06
				c-0.67,0-1.26-0.29-1.81-0.88l-11.91-12.88c-0.42-0.46-0.67-0.97-0.67-1.52c0-0.51,0.25-1.01,0.67-1.47l11.07-11.15
				c0.55-0.55,1.01-0.8,1.64-0.8c1.14,0,2.02,0.88,2.02,2.02c0,0.59-0.21,1.05-0.76,1.64l-9.72,9.76l10.82,11.74
				C241.78,162.16,241.99,162.58,241.99,163.13z"/>
			<path class="st1" d="M270.54,151.35c0,1.05-0.84,1.89-1.94,1.89h-6.99c-1.09,0-1.89-0.84-1.89-1.89c0-1.05,0.8-1.85,1.89-1.85
				h6.99C269.69,149.49,270.54,150.29,270.54,151.35z"/>
			<path class="st1" d="M257.25,161.45h-3.17v-21.21h3.17c1.09,0,1.94-0.84,1.94-1.89s-0.84-1.85-1.94-1.85h-5.35c0,0-0.01,0-0.01,0
				c0,0-0.01,0-0.01,0h-5.43c-1.09,0-1.89,0.8-1.89,1.85s0.8,1.89,1.89,1.89h3.21v21.21h-3.21c-1.09,0-1.89,0.8-1.89,1.85
				s0.8,1.89,1.89,1.89h10.8c1.09,0,1.94-0.84,1.94-1.89S258.34,161.45,257.25,161.45z"/>
			<path class="st1" d="M273.59,160.94c-0.42-0.46-0.67-1.01-0.67-1.56c0-1.18,0.97-2.02,2.06-2.02c0.51,0,0.97,0.17,1.35,0.59
				c1.52,1.81,3.7,3.24,6.44,3.24c2.95,0,4.8-1.56,4.8-3.87c0-1.81-1.01-2.73-4.08-4.17l-3.07-1.43c-4.42-2.06-6.48-4.38-6.48-7.7
				c0-4.38,3.75-7.53,8.75-7.53c3.62-0.04,6.14,1.52,7.74,3.28c0.51,0.55,0.67,1.09,0.67,1.6c0,1.05-1.01,1.98-2.06,1.98
				c-0.46,0-0.93-0.21-1.35-0.59c-1.35-1.35-2.99-2.27-5.01-2.27c-2.52,0-4.21,1.31-4.21,3.37c0,1.73,0.84,2.53,3.87,3.96l3.11,1.43
				c4.63,2.15,6.65,4.38,6.65,7.91c0,4.84-3.91,8.04-9.3,8.04C279.36,165.19,275.74,163.55,273.59,160.94z"/>
			<path class="st1" d="M310.04,162.92c0,0.93-0.46,1.56-1.31,1.85c-0.72,0.29-1.6,0.42-2.78,0.42c-4.92,0-7.62-2.52-7.62-7.2v-10.1
				h-1.64c-1.09,0-1.98-0.8-1.98-1.89c0-1.09,0.88-1.94,1.98-1.94h1.64v-3.62c0-1.26,0.97-2.27,2.23-2.27
				c1.26,0,2.23,0.97,2.23,2.27v3.62h4.42c1.14,0,1.98,0.84,1.98,1.94c0,1.09-0.84,1.89-1.98,1.89h-4.42v9.72
				c0,2.52,1.22,3.58,4.04,3.58c0.51,0,0.88-0.04,1.26-0.04C309.28,161.15,310.04,161.87,310.04,162.92z"/>
			<path class="st1" d="M326.33,145.87c0,1.22-0.88,2.06-2.15,2.15c-3.37,0.08-5.68,2.36-5.68,5.68v9.22c0,1.35-0.93,2.27-2.19,2.27
				c-1.26,0-2.23-0.97-2.23-2.27v-17.05c0-1.3,0.93-2.27,2.23-2.27c1.22,0,2.15,0.97,2.15,2.27v0.63c1.39-1.64,3.45-2.65,5.77-2.65
				C325.45,143.85,326.33,144.7,326.33,145.87z"/>
			<path class="st1" d="M348.39,153.2v0.21c0,1.52-0.97,2.44-2.52,2.44h-13.22c0.59,3.33,3.07,5.43,6.73,5.43
				c1.77,0,3.45-0.55,4.84-1.6c0.38-0.25,0.76-0.42,1.14-0.42c1.05,0,1.85,0.8,1.85,1.85c0,0.76-0.3,1.26-1.1,1.85
				c-1.98,1.47-4.29,2.23-6.86,2.23c-6.4,0-11.11-4.59-11.11-10.77c0-6.1,4.63-10.82,10.65-10.82
				C344.3,143.6,348.39,147.64,348.39,153.2z M332.73,152.4h11.24c-0.08-2.99-2.19-5.05-5.3-5.05
				C335.67,147.35,333.4,149.37,332.73,152.4z"/>
			<path class="st1" d="M352.26,161.99c-0.42-0.38-0.63-0.84-0.63-1.43c0-1.05,0.88-1.94,1.98-1.94c0.46,0,0.93,0.17,1.39,0.59
				c1.3,1.22,2.86,2.15,4.84,2.15c1.81,0,3.32-0.76,3.32-2.31c0-1.35-1.22-1.89-2.9-2.57l-2.1-0.88c-3.32-1.39-5.39-2.9-5.39-6.02
				c0-3.83,3.2-5.98,7.28-5.98c2.65,0,4.97,0.97,6.56,2.53c0.46,0.42,0.67,0.93,0.67,1.47c0,1.05-0.84,1.89-1.85,1.89
				c-0.46,0-0.84-0.21-1.39-0.63c-1.09-0.84-2.52-1.43-4.08-1.43c-1.64,0-2.82,0.63-2.82,1.98c0,1.14,0.84,1.68,2.74,2.44l1.98,0.8
				c3.75,1.56,5.64,3.2,5.64,6.23c0,4.17-3.54,6.31-7.66,6.31C356.64,165.19,354.03,163.89,352.26,161.99z"/>
			<path class="st1" d="M371.41,161.99c-0.42-0.38-0.63-0.84-0.63-1.43c0-1.05,0.88-1.94,1.98-1.94c0.46,0,0.93,0.17,1.39,0.59
				c1.3,1.22,2.86,2.15,4.84,2.15c1.81,0,3.32-0.76,3.32-2.31c0-1.35-1.22-1.89-2.9-2.57l-2.1-0.88c-3.32-1.39-5.39-2.9-5.39-6.02
				c0-3.83,3.2-5.98,7.28-5.98c2.65,0,4.97,0.97,6.56,2.53c0.46,0.42,0.67,0.93,0.67,1.47c0,1.05-0.84,1.89-1.85,1.89
				c-0.46,0-0.84-0.21-1.39-0.63c-1.09-0.84-2.52-1.43-4.08-1.43c-1.64,0-2.82,0.63-2.82,1.98c0,1.14,0.84,1.68,2.74,2.44l1.98,0.8
				c3.75,1.56,5.64,3.2,5.64,6.23c0,4.17-3.54,6.31-7.66,6.31C375.79,165.19,373.18,163.89,371.41,161.99z"/>
			<path class="st1" d="M408.15,152.23v10.73c0,1.3-0.93,2.23-2.19,2.23c-1.26,0-2.19-0.97-2.19-2.23v-0.25
				c-1.52,1.6-3.7,2.48-6.35,2.48c-4.29,0-7.2-2.4-7.2-5.98c0-3.62,2.95-5.89,7.62-5.89h5.85v-1.35c0-2.82-1.6-4.42-4.42-4.42
				c-1.73,0-3.28,0.63-4.59,1.94c-0.55,0.46-1.01,0.67-1.52,0.67c-1.05,0-1.94-0.88-1.94-1.85c0-0.63,0.29-1.22,0.88-1.81
				c1.77-1.85,4.5-2.9,7.53-2.9C405,143.6,408.15,146.8,408.15,152.23z M403.69,156.9v-0.38h-5.3c-2.4,0-3.66,0.88-3.66,2.52
				c0,1.68,1.43,2.74,3.62,2.74C401.33,161.78,403.69,159.64,403.69,156.9z"/>
			<path class="st1" d="M435.76,154.42c0,6.23-4.29,10.77-10.1,10.77c-2.95,0-5.43-1.14-6.99-3.03v0.76c0,1.35-0.93,2.27-2.15,2.27
				c-1.31,0-2.23-0.97-2.23-2.27v-27.95c0-1.31,0.97-2.27,2.23-2.27c1.26,0,2.19,0.93,2.19,2.27v11.66c1.56-1.89,4-3.03,6.9-3.03
				C431.47,143.6,435.76,148.19,435.76,154.42z M431.22,154.38c0-3.87-2.65-6.73-6.31-6.73c-3.75,0-6.23,2.74-6.23,6.78
				c0,4,2.53,6.73,6.23,6.73C428.57,161.15,431.22,158.29,431.22,154.38z"/>
			<path class="st1" d="M462.32,154.42c0,6.23-4.29,10.77-10.1,10.77c-2.95,0-5.43-1.14-6.99-3.03v0.76c0,1.35-0.93,2.27-2.15,2.27
				c-1.31,0-2.23-0.97-2.23-2.27v-27.95c0-1.31,0.97-2.27,2.23-2.27c1.26,0,2.19,0.93,2.19,2.27v11.66c1.56-1.89,4-3.03,6.9-3.03
				C458.03,143.6,462.32,148.19,462.32,154.42z M457.78,154.38c0-3.87-2.65-6.73-6.31-6.73c-3.75,0-6.23,2.74-6.23,6.78
				c0,4,2.53,6.73,6.23,6.73C455.13,161.15,457.78,158.29,457.78,154.38z"/>
			<path class="st1" d="M483.83,152.23v10.73c0,1.3-0.93,2.23-2.19,2.23c-1.26,0-2.19-0.97-2.19-2.23v-0.25
				c-1.52,1.6-3.7,2.48-6.35,2.48c-4.29,0-7.2-2.4-7.2-5.98c0-3.62,2.95-5.89,7.62-5.89h5.85v-1.35c0-2.82-1.6-4.42-4.42-4.42
				c-1.73,0-3.28,0.63-4.59,1.94c-0.55,0.46-1.01,0.67-1.52,0.67c-1.05,0-1.94-0.88-1.94-1.85c0-0.63,0.29-1.22,0.88-1.81
				c1.77-1.85,4.5-2.9,7.53-2.9C480.67,143.6,483.83,146.8,483.83,152.23z M479.37,156.9v-0.38h-5.3c-2.4,0-3.66,0.88-3.66,2.52
				c0,1.68,1.43,2.74,3.62,2.74C477.01,161.78,479.37,159.64,479.37,156.9z"/>
			<path class="st1" d="M489.77,156.06v-10.19c0-1.3,0.93-2.27,2.19-2.27c1.26,0,2.19,0.97,2.19,2.27v10.52
				c0,2.74,1.94,4.71,4.67,4.71c2.65,0,4.55-1.98,4.55-4.71v-10.52c0-1.3,0.93-2.27,2.23-2.27c1.26,0,2.19,0.97,2.19,2.27v10.19
				c0,5.39-3.7,9.13-8.96,9.13C493.47,165.19,489.77,161.45,489.77,156.06z"/>
			<path class="st1" d="M526.05,162.92v-24.16c0-1.31,0.93-2.27,2.23-2.27c1.31,0,2.23,0.97,2.23,2.27v24.16
				c0,1.31-0.93,2.27-2.23,2.27C526.97,165.19,526.05,164.23,526.05,162.92z"/>
			<path class="st1" d="M555.05,151.81v11.11c0,1.35-0.97,2.27-2.19,2.27c-1.3,0-2.23-0.97-2.23-2.27V152.4c0-2.86-1.81-4.8-4.5-4.8
				c-2.74,0-4.71,2.02-4.71,4.8v10.52c0,1.35-0.93,2.27-2.19,2.27c-1.26,0-2.23-0.97-2.23-2.27v-17.05c0-1.3,0.93-2.27,2.23-2.27
				c1.22,0,2.15,0.97,2.15,2.27c1.47-1.43,3.54-2.27,5.93-2.27C552.02,143.6,555.05,146.8,555.05,151.81z"/>
			<path class="st1" d="M591.33,146.13c0,2.99-1.14,5.39-4.29,9.3l-6.86,8.67c-0.59,0.76-1.26,1.09-1.98,1.09
				c-1.22,0-2.23-0.97-2.23-2.1c0-0.55,0.21-1.05,0.63-1.47l5.01-6.27c-0.25,0.04-0.55,0.04-0.84,0.04c-5.01,0-9.09-4.17-9.09-9.3
				c0-5.35,4.34-9.6,9.85-9.6C587.04,136.49,591.33,140.74,591.33,146.13z M586.91,146.09c0-3.16-2.36-5.51-5.39-5.51
				c-3.07,0-5.47,2.36-5.47,5.51c0,3.11,2.36,5.51,5.47,5.51C584.6,151.6,586.91,149.2,586.91,146.09z"/>
			<path class="st1" d="M616.92,150.59c0,9.09-4.04,14.6-10.56,14.6c-6.57,0-10.61-5.51-10.61-14.6c0-8.88,3.96-14.1,10.61-14.1
				C612.96,136.49,616.92,141.71,616.92,150.59z M600.38,150.63c0,6.82,2.06,10.48,5.98,10.48s5.93-3.62,5.93-10.48
				c0-6.69-1.98-10.06-5.93-10.06C602.36,140.57,600.38,143.94,600.38,150.63z"/>
			<path class="st1" d="M634.05,160.94c-0.42-0.46-0.67-1.01-0.67-1.56c0-1.18,0.97-2.02,2.06-2.02c0.51,0,0.97,0.17,1.35,0.59
				c1.52,1.81,3.7,3.24,6.44,3.24c2.95,0,4.8-1.56,4.8-3.87c0-1.81-1.01-2.73-4.08-4.17l-3.07-1.43c-4.42-2.06-6.48-4.38-6.48-7.7
				c0-4.38,3.75-7.53,8.75-7.53c3.62-0.04,6.14,1.52,7.74,3.28c0.51,0.55,0.67,1.09,0.67,1.6c0,1.05-1.01,1.98-2.06,1.98
				c-0.46,0-0.93-0.21-1.35-0.59c-1.35-1.35-2.99-2.27-5.01-2.27c-2.52,0-4.21,1.31-4.21,3.37c0,1.73,0.84,2.53,3.87,3.96l3.11,1.43
				c4.63,2.15,6.65,4.38,6.65,7.91c0,4.84-3.91,8.04-9.3,8.04C639.82,165.19,636.2,163.55,634.05,160.94z"/>
			<path class="st1" d="M676.94,153.2v0.21c0,1.52-0.97,2.44-2.52,2.44H661.2c0.59,3.33,3.07,5.43,6.73,5.43
				c1.77,0,3.45-0.55,4.84-1.6c0.38-0.25,0.76-0.42,1.14-0.42c1.05,0,1.85,0.8,1.85,1.85c0,0.76-0.3,1.26-1.1,1.85
				c-1.98,1.47-4.29,2.23-6.86,2.23c-6.4,0-11.11-4.59-11.11-10.77c0-6.1,4.63-10.82,10.65-10.82
				C672.86,143.6,676.94,147.64,676.94,153.2z M661.28,152.4h11.24c-0.08-2.99-2.19-5.05-5.3-5.05
				C664.23,147.35,661.96,149.37,661.28,152.4z"/>
			<path class="st1" d="M686.41,134.97v27.95c0,1.35-0.93,2.27-2.19,2.27c-1.26,0-2.23-0.97-2.23-2.27v-27.95
				c0-1.31,0.97-2.27,2.23-2.27C685.49,132.7,686.41,133.63,686.41,134.97z M700.09,163.13c0,1.18-0.93,2.06-2.06,2.06
				c-0.72,0-1.22-0.25-1.77-0.88l-8.12-9.39c-0.46-0.59-0.67-1.09-0.67-1.6c0-0.59,0.21-1.09,0.72-1.64l7.45-7.41
				c0.42-0.42,1.01-0.67,1.6-0.67c1.18,0,2.1,0.88,2.1,2.02c0,0.59-0.3,1.09-0.84,1.64l-6.19,6.02l7.2,8.38
				C699.92,162.12,700.09,162.58,700.09,163.13z"/>
		</g>
		<g>
			<path class="st1" d="M287.97,43.39h-0.94c-2.27,0-4.07,1.01-5.33,2.98l-24.76,37.24l-24.76-37.24c-1.28-1.92-3.18-2.98-5.33-2.98
				h-0.94c-3.16,0-5.84,2.67-5.84,5.84v66.06c0,3.33,2.46,5.84,5.73,5.84c3.38,0,5.84-2.45,5.84-5.84V66.24l20.2,29.71
				c1.27,1.84,3.05,2.85,5,2.85c1.33,0,3.27-0.49,4.9-2.86l20.29-29.81v49.06c0,3.28,2.67,5.94,5.94,5.94
				c3.22,0,5.84-2.67,5.84-5.94V49.23C293.81,46.07,291.14,43.39,287.97,43.39z"/>
			<path class="st1" d="M319.64,41.61c-3.75,0-6.47,2.54-6.47,6.05v1.36c0,3.45,2.78,6.05,6.47,6.05c3.81,0,6.57-2.54,6.57-6.05
				v-1.36C326.21,44.1,323.51,41.61,319.64,41.61z"/>
			<path class="st1" d="M319.64,62.37c-3.16,0-5.73,2.62-5.73,5.84v47.08c0,3.38,2.46,5.84,5.84,5.84c3.32,0,5.73-2.45,5.73-5.84
				V68.21C325.48,64.83,323.02,62.37,319.64,62.37z"/>
			<path class="st1" d="M372.59,61.74c-6.88,0-12.42,2.34-16.81,7.13v-0.66c0-3.38-2.45-5.84-5.84-5.84c-3.16,0-5.73,2.62-5.73,5.84
				v47.08c0,3.38,2.45,5.84,5.84,5.84c3.32,0,5.73-2.45,5.73-5.84V87.82c0-8.97,5.96-15.24,14.5-15.24
				c8.42,0,13.25,5.33,13.25,14.61v28.1c0,3.38,2.45,5.84,5.84,5.84c3.27,0,5.73-2.51,5.73-5.84V85.2
				C395.1,70.95,386.27,61.74,372.59,61.74z"/>
			<path class="st1" d="M461.51,40.04c-3.32,0-5.73,2.45-5.73,5.84v24.13c-5.1-5.49-11.48-8.27-19.01-8.27
				c-7.02,0-13.97,2.92-19.06,8.01c-5.54,5.54-8.59,13.33-8.59,21.94v0.21c0,19.39,14.24,29.85,27.65,29.85
				c9.11,0,15.03-4.26,19.01-8.73v2.26c0,3.38,2.46,5.84,5.84,5.84c3.27,0,5.73-2.51,5.73-5.84V45.88
				C467.35,42.49,464.89,40.04,461.51,40.04z M456.09,91.59v0.21c0,9.25-6.83,19.22-17.86,19.22c-11.26,0-17.34-9.9-17.34-19.22
				v-0.21c0-11.26,7.13-19.12,17.34-19.12C447.01,72.47,456.09,79.62,456.09,91.59z"/>
			<path class="st1" d="M537.95,43.71h-45.4c-3.22,0-5.84,2.66-5.84,5.94v65.53c0,3.28,2.62,5.94,5.84,5.94
				c3.39,0,5.94-2.55,5.94-5.94V88.62h34.74c3.05,0,5.52-2.48,5.52-5.52c0-3.05-2.48-5.52-5.52-5.52h-34.74V54.86h39.46
				c3.04,0,5.52-2.52,5.52-5.63C543.47,46.19,541,43.71,537.95,43.71z"/>
			<path class="st1" d="M564.06,40.04c-3.16,0-5.73,2.62-5.73,5.84v69.41c0,3.38,2.46,5.84,5.84,5.84c3.32,0,5.73-2.45,5.73-5.84
				V45.88C569.9,42.6,567.33,40.04,564.06,40.04z"/>
			<path class="st1" d="M613.03,61.74c-15.82,0-27.75,12.88-27.75,29.95v0.21c0,17.08,12.38,29.95,28.8,29.95
				c8.73,0,15.41-2.67,21.6-8.61c1.23-1.08,1.85-2.4,1.85-3.94c0-2.92-2.33-5.21-5.31-5.21c-1.19,0-2.42,0.48-3.47,1.39
				c-4.5,4.04-8.96,5.84-14.46,5.84c-8.92,0-15.46-5.77-17.08-14.85h37.21c3.04,0,5.52-2.48,5.52-5.52
				C639.94,76.44,630.7,61.74,613.03,61.74z M612.82,72.05c9.6,0,14.13,7.41,15.33,14.96h-30.92
				C598.91,78.11,605.11,72.05,612.82,72.05z"/>
			<path class="st1" d="M697.95,111.56l-16.71-20.49l15.94-19.51c1-1.14,1.48-2.37,1.48-3.77c0-3.04-2.38-5.42-5.42-5.42
				c-2.34,0-3.75,1.33-4.83,2.66L674.26,83L660,64.9c-0.89-1.09-2.36-2.53-4.92-2.53c-3.2,0-5.52,2.32-5.52,5.52
				c0,1.47,0.56,2.81,1.65,4.04l15.77,19.34l-16.77,20.64c-1,1.04-1.49,2.28-1.49,3.79c0,2.99,2.43,5.42,5.42,5.42
				c2.34,0,3.75-1.33,4.83-2.66l14.99-19.02l15.11,19.15c0.89,1.08,2.36,2.53,4.92,2.53c3.1,0,5.52-2.43,5.52-5.52
				C699.5,114.28,698.96,112.86,697.95,111.56z"/>
		</g>
	</g>
</g>
</svg>
