<svg width="52" height="52" viewBox="0 0 52 52" fill="none" xmlns="http://www.w3.org/2000/svg">
<g opacity="0.7">
<path d="M40.6152 50.1361H11.3847C10.3051 50.1348 9.27007 49.7054 8.50666 48.942C7.74324 48.1785 7.31379 47.1435 7.3125 46.0639V21.9375C7.31637 20.8596 7.74696 19.827 8.51009 19.0657C9.27323 18.3044 10.3068 17.8763 11.3847 17.875H14.0839C14.2994 17.875 14.506 17.9606 14.6584 18.113C14.8108 18.2653 14.8964 18.472 14.8964 18.6875C14.8964 18.903 14.8108 19.1097 14.6584 19.262C14.506 19.4144 14.2994 19.5 14.0839 19.5H11.3847C10.7375 19.5004 10.1168 19.7571 9.65819 20.2138C9.19962 20.6706 8.94051 21.2903 8.9375 21.9375V46.0639C8.93793 46.7128 9.1959 47.335 9.65476 47.7939C10.1136 48.2527 10.7358 48.5107 11.3847 48.5111H40.6152C41.2642 48.5107 41.8864 48.2527 42.3452 47.7939C42.8041 47.335 43.0621 46.7128 43.0625 46.0639V21.9375C43.0595 21.2903 42.8004 20.6706 42.3418 20.2138C41.8832 19.7571 41.2625 19.5004 40.6152 19.5H37.9161C37.7006 19.5 37.494 19.4144 37.3416 19.262C37.1892 19.1097 37.1036 18.903 37.1036 18.6875C37.1036 18.472 37.1892 18.2653 37.3416 18.113C37.494 17.9606 37.7006 17.875 37.9161 17.875H40.6152C41.6932 17.8763 42.7268 18.3044 43.4899 19.0657C44.253 19.827 44.6836 20.8596 44.6875 21.9375V46.0639C44.6862 47.1435 44.2568 48.1785 43.4933 48.942C42.7299 49.7054 41.6949 50.1348 40.6152 50.1361Z" fill="white"/>
<path d="M38.7286 19.5002H13.2714V11.3394C13.2744 8.68235 14.3311 6.13495 16.2098 4.25597C18.0885 2.377 20.6357 1.31985 23.2927 1.31641H28.7056C31.363 1.31942 33.9106 2.37638 35.7896 4.2554C37.6686 6.13443 38.7256 8.68207 38.7286 11.3394V19.5002ZM14.8964 17.8752H37.1036V11.3394C37.101 9.11319 36.2156 6.97887 34.6416 5.40455C33.0676 3.83022 30.9335 2.94442 28.7072 2.94141H23.2927C21.0665 2.94442 18.9324 3.83022 17.3584 5.40455C15.7843 6.97887 14.8989 9.11319 14.8964 11.3394V17.8752Z" fill="white"/>
<path d="M37.9161 19.5H14.0839C13.8684 19.5 13.6617 19.4144 13.5093 19.262C13.357 19.1097 13.2714 18.903 13.2714 18.6875C13.2714 18.472 13.357 18.2653 13.5093 18.113C13.6617 17.9606 13.8684 17.875 14.0839 17.875H37.9161C38.1316 17.875 38.3383 17.9606 38.4906 18.113C38.643 18.2653 38.7286 18.472 38.7286 18.6875C38.7286 18.903 38.643 19.1097 38.4906 19.262C38.3383 19.4144 38.1316 19.5 37.9161 19.5Z" fill="white"/>
<path d="M26 33.9887C25.3842 33.9887 24.7822 33.8061 24.2702 33.464C23.7582 33.1219 23.3591 32.6356 23.1235 32.0667C22.8878 31.4978 22.8262 30.8718 22.9463 30.2678C23.0664 29.6638 23.363 29.1091 23.7984 28.6736C24.2338 28.2382 24.7886 27.9417 25.3926 27.8215C25.9965 27.7014 26.6225 27.7631 27.1915 27.9987C27.7604 28.2344 28.2466 28.6334 28.5888 29.1455C28.9309 29.6575 29.1135 30.2594 29.1135 30.8752C29.1126 31.7007 28.7843 32.4921 28.2006 33.0758C27.6169 33.6596 26.8255 33.9879 26 33.9887ZM26 29.3867C25.7056 29.3867 25.4178 29.474 25.173 29.6376C24.9282 29.8011 24.7374 30.0336 24.6248 30.3056C24.5121 30.5776 24.4826 30.8769 24.5401 31.1656C24.5975 31.4544 24.7393 31.7196 24.9474 31.9277C25.1556 32.1359 25.4208 32.2777 25.7096 32.3351C25.9983 32.3926 26.2976 32.3631 26.5696 32.2504C26.8416 32.1378 27.0741 31.947 27.2376 31.7022C27.4012 31.4574 27.4885 31.1696 27.4885 30.8752C27.488 30.4806 27.3311 30.1022 27.052 29.8232C26.773 29.5441 26.3946 29.3872 26 29.3867Z" fill="white"/>
<path d="M26 42.5214C25.7845 42.5214 25.5778 42.4358 25.4255 42.2834C25.2731 42.131 25.1875 41.9243 25.1875 41.7089V33.3027C25.1875 33.0872 25.2731 32.8806 25.4255 32.7282C25.5778 32.5758 25.7845 32.4902 26 32.4902C26.2155 32.4902 26.4222 32.5758 26.5745 32.7282C26.7269 32.8806 26.8125 33.0872 26.8125 33.3027V41.7072C26.8127 41.8141 26.7919 41.9199 26.7511 42.0187C26.7104 42.1174 26.6506 42.2072 26.5751 42.2828C26.4996 42.3584 26.41 42.4184 26.3113 42.4594C26.2126 42.5003 26.1068 42.5214 26 42.5214Z" fill="white"/>
</g>
</svg>
